<?xml version="1.0" encoding="utf-8"?>
<!-- Generator: Adobe Illustrator 27.1.1, SVG Export Plug-In . SVG Version: 6.00 Build 0)  -->
<svg version="1.1" id="Layer_1" xmlns="http://www.w3.org/2000/svg" xmlns:xlink="http://www.w3.org/1999/xlink" x="0px" y="0px"
	 viewBox="0 0 595.28 743.16" style="enable-background:new 0 0 595.28 743.16;" xml:space="preserve">
<style type="text/css">
	.st0{fill:#A83527;}
	.st1{fill:#FFFFFF;}
	.st2{fill:url(#SVGID_1_);}
	.st3{fill:url(#SVGID_00000076561331889383380780000009428080003306834819_);}
	.st4{fill:url(#SVGID_00000162350478189872722350000018012124507168218027_);}
	.st5{fill:none;}
</style>
<g>
	<path class="st0" d="M594.57,35.46v673.73c0,17.01-15.45,31.03-34.4,31.03H36.85c-18.95,0-34.4-13.83-34.4-31.03V35.46
		c0-17.01,15.45-31.03,34.4-31.03h523.32C579.12,4.43,594.57,18.26,594.57,35.46z"/>
</g>
<g>
	<path class="st1" d="M379.9,50.79c-5.52-20.38-86.09-46.17-95.83-37.76c-15.08,12.52-37.16,48.23-50.22,91.04
		c-73.76,45.43-148.99,113.47-164.81,170.3C24.89,431.96,21.4,501.31,4.29,713.67c47.46-111.42,68.98-159.08,69.53-269.75
		c0.74-72.16-3.49-120.58,11.04-161.14c8.46-24.3,28.7-40.75,57.76-52.16c2.21-0.93,4.6-1.68,6.99-2.62
		c43.41-15.14,104.11-20.19,173.64-22.99C364.82,158.09,383.4,64.25,379.9,50.79z"/>
	<path class="st1" d="M195.04,480.94c-0.92-0.37-2.02-0.56-3.13-0.56h-0.92c-56.29-0.37-56.65-37.39-55.37-91.97
		c1.1-44.49,8.09-94.4,14.16-160.58c0.55-5.61,0.92-11.22,1.47-17.01c-2.94,6.92-5.89,13.46-8.65,19.63
		c-20.23,46.92-32.19,82.07-32.93,142.07c-1.29,111.79,9.75,208.06,81.67,208.62h0.37c1.1,0,2.21-0.19,3.31-0.75
		c9.93-4.49,17.84-28.79,17.84-51.78C213.07,502.43,205.16,484.11,195.04,480.94z"/>
	<path class="st1" d="M408.97,226.33l-41.02,33.09c-3.31-10.28-11.96-21.5-26.67-34.4l-47.83,38.7l38.08,48.23
		c21.52-10.84,34.77-22.81,38.08-36.08l29.61,37.39c22.81-11.59,36.42-24.12,38.44-38.7C439.13,260.72,430.49,245.77,408.97,226.33z
		 M455.51,480.56h-1.29c-18.58,0-39.73-0.93-49.85-4.3c25.02-25.05,32.93-45.99,33.85-64.12c1.66-44.3-22.44-52.53-46.91-52.53
		c-50.4,0.37-100.25,56.83-87.19,115.15c-5.15,3.55-87.37,5.23-105.58,5.61c-1.1,0-2.21,0.19-3.31,0.56
		c-9.93,3.18-17.84,21.68-17.84,47.67c0,22.99,7.91,47.3,18.03,51.78c1.1,0.56,2.21,0.75,3.31,0.75
		c33.85,0.37,148.44-20.56,181-75.71c-14.35,43,8.83,75.71,75.78,75.71h0.37c11.4,0,21.15-27.11,21.15-52.53
		C476.66,499.82,466.91,480.56,455.51,480.56z M397.56,468.97c-6.81,3.93-53.71-0.37-70.27-11.96
		c-11.4-8.23-16.55-19.44-10.67-36.08c3.31-9.53,41.39-20.56,68.61-11.22C414.12,419.43,421.66,452.52,397.56,468.97z"/>
	<path class="st1" d="M562.19,395.88c-6.44-3.93-38.08,31.03-42.31,45.61c-2.21,6.54,0.92,14.58,4.23,21.87
		c-13.98,13.83-27.59,17.2-68.61,17.2h-0.37c-11.22,0-20.79,19.63-20.79,48.23c0,25.42,9.75,52.53,21.15,52.53h0.92
		c36.42-0.56,72.84-26.55,99.88-58.51c10.12-12.15,15.64-27.48,15.64-43.37l19.87-38.51c3.68-10.84,0.18-22.81-8.65-29.72
		C576.36,405.6,564.03,396.81,562.19,395.88z"/>
</g>
<linearGradient id="SVGID_1_" gradientUnits="userSpaceOnUse" x1="194.6729" y1="208.5602" x2="323.4337" y2="208.5602" gradientTransform="matrix(1 0 0 1 0 -49.9998)">
	<stop  offset="0" style="stop-color:#FFFFFF;stop-opacity:0"/>
	<stop  offset="0.16" style="stop-color:#F5F6F4;stop-opacity:0.16"/>
	<stop  offset="0.2954" style="stop-color:#E3E1E1;stop-opacity:0.2954"/>
	<stop  offset="0.4218" style="stop-color:#C9C7C7;stop-opacity:0.4218"/>
	<stop  offset="0.5427" style="stop-color:#A9A6A6;stop-opacity:0.5427"/>
	<stop  offset="0.6599" style="stop-color:#838080;stop-opacity:0.6599"/>
	<stop  offset="0.7741" style="stop-color:#5D5A5A;stop-opacity:0.7741"/>
	<stop  offset="0.886" style="stop-color:#363434;stop-opacity:0.886"/>
	<stop  offset="0.9934" style="stop-color:#070707;stop-opacity:0.9934"/>
	<stop  offset="1" style="stop-color:#020202"/>
</linearGradient>
<path class="st2" d="M215.83,212.87c-6.99-27.85-14.16-54.96-21.15-82.81c13.24-8.41,26.49-17.39,39.73-25.8
	c0.92,10.84,4.23,34.58,21.15,57.76c24.28,33.09,58.86,41.31,67.88,43C293.08,205.39,252.06,209.13,215.83,212.87z"/>
<linearGradient id="SVGID_00000056408170562353789440000015278074011981180293_" gradientUnits="userSpaceOnUse" x1="227.5794" y1="570.8474" x2="379.5171" y2="570.8474" gradientTransform="matrix(1 0 0 1 0 -49.9998)">
	<stop  offset="0" style="stop-color:#FFFFFF;stop-opacity:0"/>
	<stop  offset="0.16" style="stop-color:#F5F6F4;stop-opacity:0.16"/>
	<stop  offset="0.2954" style="stop-color:#E3E1E1;stop-opacity:0.2954"/>
	<stop  offset="0.4218" style="stop-color:#C9C7C7;stop-opacity:0.4218"/>
	<stop  offset="0.5427" style="stop-color:#A9A6A6;stop-opacity:0.5427"/>
	<stop  offset="0.6599" style="stop-color:#838080;stop-opacity:0.6599"/>
	<stop  offset="0.7741" style="stop-color:#5D5A5A;stop-opacity:0.7741"/>
	<stop  offset="0.886" style="stop-color:#363434;stop-opacity:0.886"/>
	<stop  offset="0.9934" style="stop-color:#070707;stop-opacity:0.9934"/>
	<stop  offset="1" style="stop-color:#020202"/>
</linearGradient>
<path style="fill:url(#SVGID_00000056408170562353789440000015278074011981180293_);" d="M304.12,475.14
	c2.94,5.98,9.01,15.52,19.87,22.99c23.91,16.45,51.14,8.79,55.37,7.48c-4.6,6.73-8.46,12.71-18.21,21.12
	c-28.7,25.05-68.43,36.08-79.28,39.82c-17.84-24.49-36.6-62.25-54.45-86.74c9.01,0.19,58.86-1.87,69.35-3.55
	C299.34,475.89,301.73,475.52,304.12,475.14z"/>
<g>
	<g>
		<path class="st1" d="M519.89,88.74c-17.66,0-32.01-14.58-32.01-32.53c0-17.95,14.35-32.53,32.01-32.53s32.01,14.58,32.01,32.53
			C552.08,74.16,537.73,88.74,519.89,88.74z M519.89,27.42c-15.64,0-28.14,12.9-28.14,28.6c0,15.89,12.69,28.6,28.14,28.6
			c15.45,0,28.14-12.9,28.14-28.6C548.21,40.32,535.52,27.42,519.89,27.42z"/>
	</g>
	<g>
		<g>
			<path class="st1" d="M519.89,35.46c4.97,0,8.83,1.12,11.4,3.55c2.76,2.43,4.05,5.61,4.05,9.91c0,4.49-1.29,7.85-4.05,10.28
				c-2.76,2.43-6.44,3.55-11.4,3.55H509.4v12.9h-4.6v-40h15.08V35.46z M519.89,58.83c3.49,0,6.44-0.75,8.28-2.43
				c1.84-1.68,2.94-4.11,2.94-7.29s-0.92-5.42-2.94-7.1c-2.02-1.68-4.78-2.43-8.28-2.43H509.4v19.25H519.89z M521.36,60.88h4.6
				l10.12,14.77h-5.15L521.36,60.88z"/>
		</g>
	</g>
</g>
<linearGradient id="SVGID_00000109025725626478059150000010807471341780554908_" gradientUnits="userSpaceOnUse" x1="506.8904" y1="589.0494" x2="554.0754" y2="501.6696" gradientTransform="matrix(1 0 0 1 0 -49.9998)">
	<stop  offset="0" style="stop-color:#FFFFFF;stop-opacity:0"/>
	<stop  offset="0.16" style="stop-color:#F5F6F4;stop-opacity:0.16"/>
	<stop  offset="0.2954" style="stop-color:#E3E1E1;stop-opacity:0.2954"/>
	<stop  offset="0.4218" style="stop-color:#C9C7C7;stop-opacity:0.4218"/>
	<stop  offset="0.5427" style="stop-color:#A9A6A6;stop-opacity:0.5427"/>
	<stop  offset="0.6599" style="stop-color:#838080;stop-opacity:0.6599"/>
	<stop  offset="0.7741" style="stop-color:#5D5A5A;stop-opacity:0.7741"/>
	<stop  offset="0.886" style="stop-color:#363434;stop-opacity:0.886"/>
	<stop  offset="0.9934" style="stop-color:#070707;stop-opacity:0.9934"/>
	<stop  offset="1" style="stop-color:#020202"/>
</linearGradient>
<path style="fill:url(#SVGID_00000109025725626478059150000010807471341780554908_);" d="M524.12,463.36
	c2.58,3.55,7.73,9.53,16,13.83c14.16,7.29,27.78,3.18,31.82,2.24c0,7.1-0.92,13.65-3.86,22.06c-0.74,2.8-2.76,6.92-6.07,13.09
	c-4.97,7.29-6.99,9.72-8.09,10.66c-9.93,5.98-41.94-31.22-55.74-47.67c3.49-0.75,8.46-2.06,13.8-5.05
	C517.68,469.53,521.54,465.98,524.12,463.36z"/>
<path class="st1" d="M200.01,390.08c-2.94,0-5.89,0.37-8.83-0.19c-1.66-0.37-4.05-1.68-4.6-3.18c-0.37-1.12,0.92-3.74,2.02-4.86
	c8.83-8.23,18.03-16.26,27.04-24.49c0.37-0.37,1.1-0.75,1.29-1.12c0.55-1.31,0.92-2.8,1.29-4.11c-1.47,0-3.13-0.75-4.41-0.19
	c-6.62,2.99-13.24,6.54-19.87,9.53c-1.84,0.75-4.05,0.75-6.07,0.93c0-2.06-0.55-4.11,0-5.98c2.58-9.16,5.15-18.32,8.28-27.29
	c0.92-2.43,3.49-5.05,5.89-5.98c20.05-7.48,40.28-14.58,60.7-21.68c5.7-2.06,7.17-0.93,7.91,4.86
	C276.71,350.64,246.18,388.78,200.01,390.08z"/>
<path class="st1" d="M523.75,314.93c-3.13,5.98-6.25,10.84-8.09,16.08c-5.15,14.58-9.57,29.54-14.9,44.12
	c-1.1,2.99-4.05,5.42-6.25,8.04c-1.47-2.8-3.49-5.42-4.41-8.41c-4.05-12.71-7.91-25.61-11.77-38.32c-1.29-4.3-3.86-5.61-8.28-5.23
	c-10.48,1.31-18.95-7.85-17.29-18.51c0.92-6.36,6.62-10.84,14.16-11.22c13.24-0.75,24.28,8.41,27.59,22.99
	c0.74,3.36,1.47,6.92,2.21,10.66c3.13-7.48,6.07-14.96,9.38-22.06c2.21-4.86,4.6-9.91,7.36-14.39c4.41-7.1,11.22-8.41,18.21-4.11
	c8.83,5.61,13.8,17.2,11.77,27.48c-0.92,4.86-3.68,7.66-7.54,8.04c-4.05,0.37-6.81-1.68-8.83-6.36
	C526.32,321.29,525.4,318.86,523.75,314.93z"/>
<path class="st1" d="M91.66,518.7c0,4.49,0.37,8.97,0,13.27c-0.55,6.17-1.84,12.15-2.21,18.32c-0.18,1.87,1.47,5.42,2.76,5.61
	c2.02,0.56,5.15-0.56,6.62-2.06c5.33-5.61,7.73-6.73,11.59-4.67c5.15,2.8,8.28,10.47,6.81,16.45c-1.66,6.92-8.46,13.09-15.64,14.02
	c-7.17,0.93-12.14-2.8-15.82-8.6c-8.46-13.65-8.46-27.85-1.66-42.06c1.84-3.74,4.05-7.1,6.07-10.66
	C90.56,518.32,91.11,518.51,91.66,518.7z"/>
<path class="st1" d="M459,258.85c0.18-4.3,3.13-5.98,6.81-6.73c30.17-7.1,60.33-14.21,90.32-21.5c6.07-1.5,11.96-2.8,18.58-4.49
	c0,2.43-0.18,4.3,0,6.36c0.18,2.24-0.92,3.18-3.13,3.74c-25.38,5.42-50.58,10.84-75.97,16.08c-11.96,2.43-23.91,4.49-35.87,6.73
	C459.74,259.23,459.37,259.04,459,258.85z"/>
<g>
	<path class="st5" d="M243.97,698.91h3.68c0.74,0,1.47-0.19,2.02-0.75c0.55-0.37,1.1-1.12,1.29-2.06c0-0.37,0-0.75,0-1.12
		c0-0.19-0.18-0.37-0.18-0.56L243.97,698.91z"/>
	<path class="st5" d="M252.62,619.08c0.55-0.37,1.1-1.12,1.29-2.06c0-0.37,0-0.75,0-1.12c0-0.19-0.18-0.37-0.18-0.56l-6.62,4.49
		h3.68C251.33,619.83,252.06,619.64,252.62,619.08z"/>
	<path class="st5" d="M138.75,688.81l-3.13,1.31l-1.66,8.41c0.37,0.19,1.1,0.19,1.66,0.19c1.29,0,2.76-0.56,3.86-1.5
		c1.1-0.93,2.02-2.24,2.21-3.55c0.18-1.5,0-2.62-0.74-3.55C140.41,689.56,139.67,689,138.75,688.81z"/>
	<path class="st5" d="M384.5,688.81l-3.13,1.31l-1.66,8.41c0.37,0.19,1.1,0.19,1.66,0.19c1.29,0,2.76-0.56,3.86-1.5
		c1.1-0.93,2.02-2.24,2.21-3.55c0.18-1.5,0-2.62-0.74-3.55C386.34,689.56,385.61,689,384.5,688.81z"/>
	<path class="st5" d="M81.92,690.31c-1.1,0.93-2.02,2.24-2.21,3.55c-0.18,1.31,0,2.62,0.74,3.55c0.55,0.75,1.29,1.12,2.21,1.31
		l3.13-1.31l1.66-8.41c-0.37-0.19-1.1-0.37-1.66-0.37C84.49,688.63,83.02,689.37,81.92,690.31z"/>
	<path class="st5" d="M306.51,619.83h1.84l2.02-9.91c-0.55-0.19-1.1-0.37-1.66-0.37c-1.47,0-2.76,0.56-3.86,1.5
		s-2.02,2.24-2.21,3.55c-0.37,1.31,0,2.62,0.74,3.55C303.94,619.27,305.04,619.83,306.51,619.83z"/>
	<path class="st5" d="M542.14,690.31c-1.1,0.93-2.02,2.24-2.21,3.55c-0.37,1.31,0,2.62,0.74,3.55c0.74,0.93,1.84,1.5,3.31,1.5h1.84
		l2.02-9.91c-0.55-0.19-1.1-0.37-1.66-0.37C544.53,688.63,543.25,689.37,542.14,690.31z"/>
	<path class="st5" d="M349.19,619.83l3.13-1.31l1.66-8.41c-0.37-0.19-1.1-0.37-1.66-0.37c-1.29,0-2.76,0.56-3.86,1.5
		c-1.1,0.93-2.02,2.24-2.21,3.55c-0.18,1.31,0,2.62,0.74,3.55C347.53,619.08,348.27,619.64,349.19,619.83z"/>
	<path class="st1" d="M87.62,655.91c2.76-1.12,5.33-2.62,7.73-4.49l2.21-1.68l6.81-32.9H92.4l-5.7,27.48
		c-0.37,0.19-0.74,0.37-1.29,0.56c-1.1,0.37-2.39,0.75-3.49,0.75c-2.39,0-4.41-0.93-5.7-2.62c-1.29-1.68-1.66-3.93-1.29-6.36
		l2.58-12.34H65.54l-2.58,12.34c-1.29,5.8,0,11.03,2.94,14.96c2.94,3.74,7.54,6.17,13.24,6.17
		C82.1,657.59,84.86,657.03,87.62,655.91z"/>
	<path class="st1" d="M86.51,613.29c2.39,0,4.78-2.06,5.33-4.3c0.55-2.43-1.1-4.49-3.49-4.49c-2.39,0-4.78,2.06-5.33,4.49
		C82.47,611.42,84.12,613.29,86.51,613.29z"/>
	<path class="st1" d="M127.35,640.02c0.18,0.19,0.37,0.37,0.37,0.75c2.02,2.62,5.33,4.3,9.2,4.3l0,0h6.81l0,0h6.81l0,0h6.81l0,0
		h6.81l0,0h6.81l0,0h6.81l0,0h6.81l0,0h6.81l0,0h34.21l2.58-12.15H213.8c-1.29,0-2.39-0.56-3.13-1.5s-1.1-2.24-0.74-3.55
		c0.18-1.5,1.1-2.62,2.21-3.55c1.1-0.93,2.39-1.5,3.86-1.5c0.74,0,1.29,0.19,1.84,0.37s0.92,0.56,1.29,1.12l1.66,2.24l10.12-8.6
		l-1.66-2.24c-1.29-1.5-2.94-2.8-4.6-3.74c-1.84-0.93-3.86-1.31-6.07-1.31c-4.6,0-9.2,1.87-13.06,5.05
		c-3.68,3.18-6.44,7.48-7.54,12.15c-0.37,1.68-0.37,3.55-0.37,5.05h-3.86l0,0h-6.81l0,0h-6.81l0,0h-6.81l0,0h-6.81l0,0h-6.81l0,0
		h-6.81l0,0h-6.81l0,0h-6.62c-0.74,0-1.29-0.19-1.66-0.75c-0.37-0.37-0.55-1.12-0.37-1.68l6.07-29.72h-11.96l-4.41,21.68
		c-0.55,2.62-2.02,4.86-3.86,6.73c0.18-0.93,0.18-1.87,0.18-2.8l-1.1-20l-12.14,3.18l1.1,20c0,0.37,0,0.75-0.18,1.12
		s-0.37,0.75-0.55,1.12c-0.37,0.37-0.74,0.75-1.1,0.93c-0.37,0.19-0.74,0.37-1.1,0.37h-1.47l-2.39,12.15h7.73
		C117.6,645.07,122.75,643.2,127.35,640.02z"/>
	<path class="st1" d="M243.97,644.88h4.05c4.05,0,7.91-1.68,11.22-4.3c3.13-2.62,5.52-6.36,6.44-10.47c0.37-1.87,0.37-3.74,0-5.61
		c-0.37-1.68-0.92-3.18-1.66-4.3c0.92-0.93,1.66-2.06,2.39-2.99c2.02-2.99,3.49-6.36,4.05-9.72l1.47-6.73h-11.96l-1.29,6.73
		c-0.18,1.31-0.74,2.62-1.47,3.74l-6.81-8.97l-10.12,8.41l6.99,8.97l-8.83,5.98l-2.76,1.87l-3.49,17.39l6.07-0.19
		C240.84,644.88,242.13,644.88,243.97,644.88z M253.54,628.62c0.18,0.19,0.18,0.37,0.18,0.56c0,0.37,0,0.75,0,1.12
		c-0.18,0.75-0.74,1.5-1.29,2.06c-0.55,0.56-1.29,0.75-2.02,0.75h-3.68L253.54,628.62z"/>
	<path class="st1" d="M242.13,652.73c0.18,0,0.18,0,0.37,0l0.18,0.19l0.92,0.93l4.05-3.36l-0.74-1.12
		c-0.37-0.56-0.92-0.93-1.47-1.12c-0.74-0.37-1.29-0.37-2.02-0.37c-1.47,0-3.13,0.75-4.23,1.68c-1.29,1.12-2.21,2.43-2.58,3.93
		c0,0.37,0,0.56-0.18,0.93h-1.66l-1.1,4.86h12.88l0.92-4.86h-5.7c-0.18,0-0.37-0.19-0.55-0.19c-0.18-0.19-0.18-0.37-0.18-0.75
		c0-0.19,0.18-0.37,0.37-0.56C241.58,652.73,241.95,652.73,242.13,652.73z"/>
	<path class="st1" d="M270.46,634.79c-0.37,2.06-0.55,3.93-0.55,5.98c0.18,1.87,0.55,3.74,1.1,5.61l11.4-5.98
		c-0.37-0.93-0.37-1.68-0.55-2.62c0-0.93,0-1.87,0.18-2.8l7.17-34.02h-11.77L270.46,634.79z"/>
	<path class="st1" d="M299.34,649.18l6.62,8.41c3.49-2.99,6.44-6.36,8.83-10.09c2.39-3.74,4.05-7.85,4.78-11.96l0.18-1.12
		l3.49-17.01l-1.29-1.68c-1.29-1.5-2.76-2.8-4.78-3.74c-1.84-0.93-3.86-1.31-6.07-1.31c-4.6,0-9.2,1.87-12.88,5.05
		c-3.68,3.18-6.44,7.48-7.54,12.15c-0.92,4.67,0,8.97,2.39,12.15c2.39,2.99,5.89,4.86,10.3,5.05
		C302.28,646.56,300.99,647.87,299.34,649.18z M303.38,631.42c-0.74-0.93-1.1-2.24-0.74-3.55c0.18-1.5,1.1-2.62,2.21-3.55
		c1.1-0.93,2.39-1.5,3.86-1.5c0.74,0,1.29,0.19,1.66,0.37l-2.02,9.91h-1.84C305.04,632.92,303.94,632.36,303.38,631.42z"/>
	<path class="st1" d="M347.71,645.07l2.58-0.56l5.52-2.43c2.02,1.87,4.78,2.8,7.91,2.99l0,0h6.81l0,0h2.21
		c2.21,0,4.41-0.37,6.62-1.31c2.21-0.93,4.23-2.06,6.07-3.74l2.02-1.68l5.52-26.36h-11.77l-4.41,20.75
		c-0.55,0.19-1.1,0.19-1.66,0.19h-2.21l0,0h-6.81c-0.74,0-1.29-0.19-1.66-0.75c-0.37-0.37-0.55-1.12-0.37-1.68l2.76-12.9l-1.29-1.68
		c-1.29-1.5-2.94-2.8-4.78-3.74c-1.84-0.93-3.86-1.31-6.07-1.31c-4.6,0-9.2,1.87-12.88,5.05s-6.44,7.48-7.54,12.15
		s0,8.97,2.39,12.15C339.25,643.01,343.12,645.07,347.71,645.07z M346.24,627.87c0.37-1.5,1.1-2.62,2.21-3.55
		c1.1-0.93,2.39-1.5,3.86-1.5c0.74,0,1.29,0.19,1.66,0.37l-1.66,8.41l-3.13,1.31c-0.92-0.19-1.66-0.75-2.21-1.31
		C346.24,630.49,346.06,629.18,346.24,627.87z"/>
	<path class="st1" d="M351.21,608.43c2.02,0,3.86-1.31,4.78-3.18c0.18,1.87,1.47,3.18,3.49,3.18c2.39,0,4.78-2.06,5.33-4.3
		c0.37-2.43-1.1-4.49-3.49-4.49c-2.02,0-3.86,1.31-4.78,3.18c-0.18-1.87-1.47-3.18-3.49-3.18c-2.39,0-4.78,2.06-5.33,4.49
		C347.35,606.56,348.82,608.43,351.21,608.43z"/>
	<path class="st1" d="M382.48,648.62c-2.02,0-4.05,1.31-4.78,3.36c-0.18-1.87-1.47-3.36-3.49-3.36c-2.39,0-4.78,2.06-5.33,4.49
		c-0.55,2.43,0.92,4.49,3.31,4.49c2.02,0,4.05-1.31,4.78-3.36c0.18,1.87,1.47,3.36,3.49,3.36c2.39,0,4.78-2.06,5.33-4.49
		C386.34,650.49,384.87,648.62,382.48,648.62z"/>
	<path class="st1" d="M404.55,645.07h1.29h1.47l0,0h6.81l0,0h6.81l0,0h6.81l0,0h6.81l0,0h34.21l2.58-12.15h-14.35
		c-1.29,0-2.39-0.56-3.13-1.5s-1.1-2.24-0.74-3.55c0.18-1.5,1.1-2.62,2.21-3.55c1.1-0.93,2.39-1.5,3.86-1.5
		c0.74,0,1.29,0.19,1.84,0.37c0.55,0.19,0.92,0.56,1.29,1.12l1.66,2.24l10.12-8.6l-1.66-2.24c-1.29-1.5-2.94-2.8-4.6-3.74
		c-1.84-0.93-3.86-1.31-6.07-1.31c-4.6,0-9.2,1.87-13.06,5.05c-3.68,3.18-6.44,7.48-7.54,12.15c-0.37,1.68-0.37,3.55-0.37,5.05
		h-3.86l0,0h-6.81l0,0h-6.81l0,0h-6.81l0,0h-6.81l0,0l0,0l-2.94-1.5l6.44-30.66h-11.96l-8.09,38.32L404.55,645.07z"/>
	<path class="st1" d="M494.87,632.54c-0.18,0.19-0.18,0.37-0.37,0.56h-17.84l-2.58,11.96h23.18l2.58-2.24
		c1.84,1.31,4.23,2.24,6.99,2.24l0,0h6.81l0,0h6.81l0,0h1.29c3.49,0,6.99-1.31,9.93-3.36c2.39,2.24,5.52,3.36,9.38,3.36
		c2.21,0,4.41-0.37,6.62-1.31c2.21-0.93,4.41-2.06,6.25-3.74l2.21-1.87l7.91-37.39h-11.96l-6.62,31.97
		c-0.55,0.19-1.29,0.37-1.84,0.37c-1.47,0-2.58-0.56-3.31-1.5c-0.74-0.93-1.1-2.24-0.74-3.55l5.7-27.11H533.5l-6.25,29.72
		c-0.18,0.75-0.55,1.31-1.1,1.68c-0.55,0.37-1.29,0.75-2.02,0.75h-1.29l0,0h-6.81l0,0h-6.81c-0.74,0-1.29-0.19-1.66-0.75
		c-0.37-0.37-0.37-1.12-0.37-1.68c0-0.19,0-0.37,0.18-0.75c1.1-5.23,0-10.09-2.58-13.46s-6.99-5.61-12.14-5.61h-7.73l-2.58,11.96
		h7.73c1.84,0,3.49,0.75,4.41,2.06c0.92,1.31,1.47,2.99,0.92,4.86C495.61,630.86,495.24,631.61,494.87,632.54z"/>
	<path class="st1" d="M94.79,665.63c-2.02,0-3.86,1.31-4.78,3.18c-0.18-1.87-1.47-3.18-3.49-3.18c-2.39,0-4.78,2.06-5.33,4.49
		c-0.55,2.43,0.92,4.3,3.31,4.3c2.02,0,3.86-1.31,4.78-3.18c0.18,1.87,1.47,3.18,3.49,3.18c2.39,0,4.78-2.06,5.33-4.3
		C98.65,667.69,97.18,665.63,94.79,665.63z"/>
	<path class="st1" d="M109.51,714.61c-2.02,0-3.86,1.31-4.78,3.18c-0.18-1.87-1.47-3.18-3.49-3.18c-2.39,0-4.78,2.06-5.33,4.49
		c-0.55,2.43,0.92,4.49,3.31,4.49c2.02,0,3.86-1.31,4.78-3.18c0.18,1.87,1.47,3.18,3.49,3.18c2.39,0,4.78-2.06,5.33-4.49
		C113.37,716.48,111.9,714.61,109.51,714.61z"/>
	<path class="st1" d="M140.23,676.66h-1.29l-13.43,5.8l-2.94,13.83c-0.18,0.75-0.55,1.31-1.1,1.68c-0.55,0.37-1.29,0.75-2.02,0.75
		h-1.29c-0.74,0-1.29-0.19-1.66-0.75c-0.37-0.37-0.55-1.12-0.37-1.68l2.94-13.65h-11.96l-3.31,16.08c-0.55,0.19-1.1,0.19-1.66,0.19
		h-2.21l0,0c-0.74,0-1.29-0.19-1.66-0.75c-0.37-0.37-0.55-1.12-0.37-1.68l2.76-12.9l-1.29-1.68c-1.29-1.5-2.94-2.8-4.78-3.74
		c-1.84-0.93-3.86-1.31-6.07-1.31c-4.6,0-9.2,1.87-12.88,5.05c-3.68,3.18-6.44,7.48-7.54,12.15c-1.1,4.67,0,8.97,2.39,12.15
		c2.39,3.18,6.25,5.05,10.85,5.05l2.58-0.56l5.52-2.43c2.02,1.87,4.78,2.8,7.91,2.99l0,0h2.39c2.21,0,4.41-0.37,6.62-1.31
		c0.74-0.37,1.47-0.75,2.21-0.93c1.84,1.5,4.23,2.24,7.17,2.24l0,0h1.47c2.94,0,5.7-0.93,8.09-2.24c0.55,0.37,1.1,0.75,1.84,0.93
		c1.84,0.93,3.86,1.31,6.07,1.31c4.6,0,9.2-1.87,12.88-5.05s6.44-7.48,7.54-12.15s0-8.97-2.39-12.15
		C148.69,678.72,144.82,676.66,140.23,676.66z M85.78,697.41l-3.13,1.31c-0.92-0.19-1.66-0.75-2.21-1.31
		c-0.74-0.93-0.92-2.24-0.74-3.55c0.37-1.5,1.1-2.62,2.21-3.55c1.1-0.93,2.39-1.5,3.86-1.5c0.74,0,1.29,0.19,1.66,0.37L85.78,697.41
		z M141.7,693.86c-0.37,1.31-1.1,2.62-2.21,3.55c-1.1,0.93-2.39,1.5-3.86,1.5c-0.74,0-1.29,0-1.66-0.19l1.66-8.41l3.13-1.31
		c0.92,0.19,1.66,0.75,2.21,1.31C141.7,691.06,142.06,692.36,141.7,693.86z"/>
	<path class="st1" d="M209.39,690.31c1.1-0.93,2.39-1.5,3.86-1.5c0.74,0,1.29,0.19,1.84,0.37s0.92,0.56,1.29,1.12l1.66,2.24
		l10.12-8.6l-1.66-2.24c-1.29-1.5-2.94-2.8-4.6-3.74c-1.84-0.93-3.86-1.31-6.07-1.31c-4.6,0-9.2,1.87-13.06,5.05
		c-3.68,3.18-6.44,7.48-7.54,12.15c-0.37,1.68-0.37,3.55-0.37,5.05h-3.86c-0.74,0-1.29-0.19-1.66-0.75
		c-0.37-0.37-0.55-1.12-0.37-1.68l6.07-29.72h-11.96l-4.41,21.68c-0.55,2.62-2.02,4.86-3.86,6.73c0.18-0.93,0.18-1.87,0.18-2.8
		l-1.1-20l-12.14,3.18l1.1,20c0,0.37,0,0.75-0.18,1.12c-0.18,0.37-0.37,0.75-0.55,1.12c-0.37,0.37-0.74,0.75-1.1,0.93
		c-0.37,0.19-0.74,0.37-1.1,0.37h-1.47l-2.39,11.78h7.73c5.33,0,10.48-1.87,14.9-4.86c0.18,0.19,0.37,0.37,0.37,0.75
		c2.02,2.62,5.33,4.3,9.2,4.3l0,0h34.21l2.58-12.15h-14.35c-1.29,0-2.39-0.56-3.13-1.5s-1.1-2.24-0.74-3.55
		C207.37,692.36,208.28,691.06,209.39,690.31z"/>
	<path class="st1" d="M239.19,718.72c0.18,0,0.18,0,0.37,0l0.18,0.19l0.92,0.93l4.05-3.36l-0.74-1.12
		c-0.37-0.56-0.92-0.93-1.47-1.12c-0.74-0.37-1.29-0.37-2.02-0.37c-1.47,0-3.13,0.75-4.23,1.68c-1.29,1.12-2.21,2.43-2.58,3.93
		c0,0.37,0,0.56-0.18,0.93h-1.66l-1.1,4.86h12.88l0.92-4.86h-5.7c-0.18,0-0.37-0.19-0.55-0.19c-0.18-0.19-0.18-0.37-0.18-0.75
		c0-0.19,0.18-0.37,0.37-0.56C238.64,718.72,239,718.72,239.19,718.72z"/>
	<path class="st1" d="M267.51,673.48l1.47-6.73h-11.96l-1.29,6.73c-0.18,1.31-0.74,2.62-1.47,3.74l-6.81-8.97l-10.12,8.41l6.99,8.97
		l-8.83,5.98l-2.76,1.87l-3.49,17.39l6.07-0.19c2.94,0,4.41,0,6.07,0h4.05c4.05,0,7.91-1.68,11.22-4.3
		c3.13-2.62,5.52-6.36,6.44-10.47c0.37-1.87,0.37-3.74,0-5.61c-0.37-1.68-0.92-3.18-1.66-4.3c0.92-0.93,1.66-2.06,2.39-2.99
		C265.31,680.21,266.78,676.85,267.51,673.48z M250.96,696.1c-0.18,0.75-0.74,1.5-1.29,2.06c-0.55,0.56-1.29,0.75-2.02,0.75h-3.68
		l6.62-4.49c0.18,0.19,0.18,0.37,0.18,0.56C250.96,695.35,250.96,695.73,250.96,696.1z"/>
	<path class="st1" d="M286.46,666.75H274.5l-6.99,34.02c-0.37,2.06-0.55,3.93-0.55,5.98c0.18,1.87,0.55,3.74,1.1,5.61l11.4-5.98
		c-0.37-0.93-0.37-1.68-0.55-2.62c0-0.93,0-1.87,0.18-2.8L286.46,666.75z"/>
	<path class="st1" d="M335.76,677.97l-4.23,19.63l-3.49,1.5h-15.08l0,0c-2.02,0-3.49-0.75-4.41-2.06c-0.92-1.31-1.47-2.99-0.92-4.86
		c0.18-0.93,0.55-1.87,1.1-2.62c0.55-0.93,1.1-1.5,2.02-2.24l-6.62-8.41c-2.02,1.68-3.86,3.93-5.33,6.17
		c-1.47,2.24-2.39,4.67-2.94,7.29c-1.1,5.23,0,10.09,2.58,13.46c2.58,3.55,6.99,5.61,12.14,5.61h17.66l13.61-5.8l5.7-27.29
		L335.76,677.97L335.76,677.97z"/>
	<path class="st1" d="M320.49,670.49c-2.39,0-4.78,2.06-5.33,4.49c-0.55,2.43,0.92,4.3,3.31,4.3c2.02,0,3.86-1.31,4.78-3.18
		c0.18,1.87,1.47,3.18,3.49,3.18c2.39,0,4.78-2.06,5.33-4.3c0.37-2.43-1.1-4.49-3.49-4.49c-2.02,0-3.86,1.31-4.78,3.18
		C323.8,671.8,322.51,670.49,320.49,670.49z"/>
	<path class="st1" d="M386.16,676.66h-1.29l-13.43,5.8l-2.94,13.83c-0.18,0.75-0.55,1.31-1.1,1.68c-0.55,0.37-1.29,0.75-2.02,0.75
		h-1.47l0,0l0,0l-2.94-1.5l6.44-30.66h-11.96l-8.09,38.32l11.22,5.8h1.29h1.47l0,0h1.47c2.94,0,5.7-0.93,8.09-2.24
		c0.55,0.37,1.1,0.75,1.84,0.93c1.84,0.93,3.86,1.31,6.07,1.31c4.6,0,9.2-1.87,12.88-5.05c3.68-3.18,6.44-7.48,7.54-12.15
		c1.1-4.67,0-8.97-2.39-12.15C394.62,678.53,390.76,676.66,386.16,676.66z M387.63,693.86c-0.37,1.31-1.1,2.62-2.21,3.55
		c-1.1,0.93-2.39,1.5-3.86,1.5c-0.74,0-1.29,0-1.66-0.19l1.66-8.41l3.13-1.31c0.92,0.19,1.66,0.75,2.21,1.31
		C387.63,691.06,387.81,692.36,387.63,693.86z"/>
	<path class="st1" d="M450.17,670.12c-0.55,2.43,1.1,4.3,3.31,4.3c2.39,0,4.78-2.06,5.33-4.3c0.55-2.43-0.92-4.49-3.31-4.49
		C453.11,665.63,450.72,667.69,450.17,670.12z"/>
	<path class="st1" d="M497.26,666.75l-6.81,32.15h-3.86l0,0h-6.81l0,0h-2.76c-0.74,0-1.29-0.19-1.66-0.75
		c-0.18-0.19-0.18-0.37-0.18-0.56c0.74,0,1.29,0,2.21,0l2.58-12.15c-6.44,0-11.04,0-14.16-1.12c-2.39-0.75-3.86-2.24-4.78-4.86
		l-1.1-2.99h-14.53l-2.58,11.96h7.91c1.84,3.36,4.41,5.61,7.91,6.92l-4.78,3.18h-17.29c-0.74,0-1.29-0.19-1.66-0.75
		c-0.37-0.37-0.37-1.12-0.37-1.68c0-0.19,0-0.37,0.18-0.75c1.1-5.23,0-10.09-2.58-13.46c-2.58-3.36-6.99-5.61-12.14-5.61h-7.73
		l-2.58,11.96h7.73c1.84,0,3.49,0.75,4.41,2.06c0.92,1.31,1.47,2.99,0.92,4.86c-0.18,0.93-0.55,1.87-1.1,2.62
		c-0.18,0.19-0.18,0.37-0.37,0.56h-17.84l-2.58,11.96h23.18l2.58-2.24c1.84,1.31,4.23,2.24,6.99,2.24l0,0h21.34l8.83-5.98
		c0.37,0.56,0.74,1.12,1.1,1.68c2.02,2.62,5.33,4.3,9.2,4.3h2.76l0,0h6.81l0,0h15.82l9.2-44.12L497.26,666.75L497.26,666.75z"/>
	<path class="st1" d="M526.69,666.75h-11.96l-6.99,34.02c-0.37,2.06-0.55,3.93-0.55,5.98c0.18,1.87,0.55,3.74,1.1,5.61l11.4-5.98
		c-0.37-0.93-0.37-1.68-0.55-2.62c0-0.93,0-1.87,0.18-2.8L526.69,666.75z"/>
	<path class="st1" d="M554.65,677.97c-1.84-0.93-3.86-1.31-6.07-1.31c-4.6,0-9.2,1.87-12.88,5.05s-6.44,7.48-7.54,12.15
		c-0.92,4.67,0,8.97,2.39,12.15c2.39,2.99,5.89,4.86,10.3,5.05c-1.1,1.5-2.58,2.99-4.05,4.3l6.62,8.41
		c3.49-2.99,6.44-6.36,8.83-10.09c2.39-3.74,4.05-7.85,4.78-11.96l0.18-1.12l3.49-17.01l-1.29-1.68
		C558.15,680.21,556.49,678.9,554.65,677.97z M545.64,698.91h-1.84c-1.47,0-2.58-0.56-3.31-1.5c-0.74-0.93-1.1-2.24-0.74-3.55
		c0.18-1.5,1.1-2.62,2.21-3.55c1.1-0.93,2.39-1.5,3.86-1.5c0.74,0,1.29,0.19,1.66,0.37L545.64,698.91z"/>
</g>
</svg>
